<?xml version="1.0" encoding="UTF-8"?>
<svg version="1.1" xmlns="http://www.w3.org/2000/svg" width="199" height="199">
<path d="M0 0 C1.25671509 0.01909424 1.25671509 0.01909424 2.53881836 0.03857422 C16.03767029 0.35607078 25.67223446 4.00108871 35.74609375 13.28125 C45.2935234 23.60279557 49.38140025 35.73113733 48.94140625 49.640625 C47.76135814 63.3350105 42.55523525 74.54567634 32.52734375 84.015625 C24.35830043 90.48049374 15.02450141 94.42018709 4.625 95.3125 C3.89152344 95.39371094 3.15804687 95.47492188 2.40234375 95.55859375 C-8.71481998 96.22441299 -19.10910191 90.88318021 -28.375 85.3125 C-28.375 80.19924089 -26.87934074 78.89648484 -23.375 75.3125 C-21.484375 74.48828125 -21.484375 74.48828125 -19.375 74.3125 C-17.15625 75.2734375 -17.15625 75.2734375 -14.875 76.6875 C-7.47392733 81.22445893 0.14755034 80.93406454 8.625 80.3125 C15.14985463 78.72863028 20.44301465 75.50219028 25.625 71.3125 C25.955 70.6525 26.285 69.9925 26.625 69.3125 C27.285 69.3125 27.945 69.3125 28.625 69.3125 C28.91117187 68.57902344 29.19734375 67.84554687 29.4921875 67.08984375 C30.17553403 65.41446657 30.89894737 63.75360738 31.6953125 62.12890625 C35.5059654 53.98539986 36.11265276 45.68704124 33.70703125 36.99609375 C29.51692964 26.16149445 23.37430912 19.75663738 12.8125 15.0625 C3.04995504 12.7654306 -5.22183994 12.61148817 -14.01171875 17.8984375 C-16.53591777 19.62651396 -18.96430039 21.43005805 -21.375 23.3125 C-21.94089844 23.73660156 -22.50679687 24.16070312 -23.08984375 24.59765625 C-25.85431493 26.76083662 -28.16614009 29.15888684 -30.4375 31.8125 C-43.15886972 46.60283974 -58.16834348 61.53764224 -78.375 64.3125 C-81.06882386 64.44719119 -83.675278 64.41067171 -86.375 64.3125 C-86.40185938 62.16673363 -86.42133088 60.02087355 -86.4375 57.875 C-86.44910156 56.68003906 -86.46070313 55.48507813 -86.47265625 54.25390625 C-86.375 51.3125 -86.375 51.3125 -85.375 50.3125 C-83.41899285 50.06426056 -81.45999981 49.83944704 -79.5 49.625 C-69.47578473 48.13179816 -62.16766096 43.58112653 -54.93359375 36.6328125 C-53.375 35.3125 -53.375 35.3125 -51.375 35.3125 C-51.13579834 34.75022705 -50.89659668 34.1879541 -50.65014648 33.60864258 C-48.22121841 29.23489788 -44.37177507 25.9374567 -40.85620117 22.4230957 C-39.46279162 21.02536996 -38.0857039 19.6114335 -36.70898438 18.19726562 C-26.11495551 7.55786618 -15.34917108 -0.34325738 0 0 Z " fill="#263338" transform="translate(129.375,29.6875)"/>
<path d="M0 0 C1.34222814 0.98802905 2.67808298 1.98495657 4 3 C2.34908222 7.29238623 -0.73754566 9.8793915 -4 13 C-6.36355147 12.08507685 -8.68747847 11.1584528 -10.94921875 10.01171875 C-19.18985098 5.94318399 -27.55045507 5.00167653 -36.5234375 7.15234375 C-45.60211448 10.25971426 -52.48255682 16.00886533 -57.31640625 24.2421875 C-61.18635541 32.46751497 -61.41344336 42.11795148 -58.875 50.8125 C-54.72536459 61.30403104 -48.14742275 67.47824049 -38 72 C-30.16620197 74.61126601 -21.11533582 74.05454749 -13.6875 70.5625 C-4.53776742 65.1594357 2.64938402 57.42660729 9.99145508 49.84106445 C31.79857136 27.38160679 31.79857136 27.38160679 47 24 C48.010625 23.773125 49.02125 23.54625 50.0625 23.3125 C53.73810371 22.92147833 57.30416564 22.93627872 61 23 C61 27.29 61 31.58 61 36 C60.04480469 36.14695313 59.08960938 36.29390625 58.10546875 36.4453125 C38.83683323 39.78802694 27.6398131 50.77462234 14.8125 64.75 C5.53637398 74.83048762 -6.39494499 86.54489285 -20.9140625 87.16796875 C-36.64138265 87.32539268 -48.34360269 85.61645857 -60.3125 74.3125 C-68.72171562 65.40940981 -74.0399761 54.45269875 -74.3125 42.125 C-73.87138023 28.32677374 -70.71024304 16.08415987 -60.96875 5.80859375 C-43.89339624 -9.87769353 -19.66964396 -13.0073452 0 0 Z " fill="#2E6FDF" transform="translate(89,37)"/>
<path d="M0 0 C4.88113432 2.30744532 7.55643986 5.20338195 10 10 C11.22774853 15.07230415 11.58392324 19.28813998 9 24 C10.32 24.33 11.64 24.66 13 25 C13 26.98 13 28.96 13 31 C9.12525543 31.11668214 5.25096604 31.18741231 1.375 31.25 C-0.26662109 31.30027344 -0.26662109 31.30027344 -1.94140625 31.3515625 C-8.30350026 31.42867879 -12.20046178 31.34093325 -17 27 C-20.36612181 23.26997313 -21.86721491 20.75940241 -22.25 15.6875 C-21.93527706 11.04533663 -20.89831305 7.87806438 -17.53515625 4.55078125 C-11.77455549 -0.3647436 -7.42128996 -0.74527806 0 0 Z M-12 9 C-14.50031654 12.75047482 -14.53603554 14.55856266 -14 19 C-11.7454289 21.96315059 -9.97181587 23.57638795 -6.5625 25.0625 C-2.81680069 24.97114148 -0.87598382 23.2877144 2 21 C3.56935594 17.86128812 3.35201103 15.46144178 3 12 C0.88468773 9.29710099 -0.8898467 7.57298235 -3.9375 6 C-7.17555318 6 -9.27627901 7.34208288 -12 9 Z " fill="#346CD1" transform="translate(177,156)"/>
<path d="M0 0 C0.99 0.66 1.98 1.32 3 2 C2.625 4.4375 2.625 4.4375 2 7 C1.01 7.495 1.01 7.495 0 8 C-0.78375 7.67 -1.5675 7.34 -2.375 7 C-5.20266855 5.92279293 -6.22852426 5.9735275 -9 7 C-8.31852627 10.09033594 -8.31852627 10.09033594 -6.00390625 11.28125 C-5.19824219 11.6834375 -4.39257812 12.085625 -3.5625 12.5 C-0.24051381 14.16365921 0.87414755 14.81122132 3 18 C3.53198456 22.71186325 3.64536434 24.89366112 1.25 29 C-3.60269829 31.98627587 -8.4379881 31.88755509 -14 31 C-16.875 29.46875 -16.875 29.46875 -19 28 C-18.01 26.35 -17.02 24.7 -16 23 C-15.37351562 23.15597656 -14.74703125 23.31195313 -14.1015625 23.47265625 C-13.28429687 23.66730469 -12.46703125 23.86195313 -11.625 24.0625 C-10.81289062 24.25972656 -10.00078125 24.45695312 -9.1640625 24.66015625 C-6.95838716 25.22109319 -6.95838716 25.22109319 -5 24 C-5.98089423 21.55287324 -6.600639 20.24710462 -8.875 18.83984375 C-9.57625 18.54207031 -10.2775 18.24429688 -11 17.9375 C-14.26360688 16.53966838 -14.91727014 16.12409478 -17 13 C-17.53198456 8.28813675 -17.64536434 6.10633888 -15.25 2 C-10.39968129 -0.98481152 -5.56515627 -0.75311944 0 0 Z " fill="#316ED7" transform="translate(22,156)"/>
<path d="M0 0 C3.69182432 0.04702961 4.59956988 0.26844533 7.75 2.5 C10.01157198 5.75100973 10.75 7.42009656 10.75 11.375 C9.55443782 15.29378714 8.59610054 17.66610496 5.4375 20.3125 C2.32519709 21.54294534 0.06983634 21.67009656 -3.25 21.375 C-3.91 21.045 -4.57 20.715 -5.25 20.375 C-5.25 23.345 -5.25 26.315 -5.25 29.375 C-7.56 29.375 -9.87 29.375 -12.25 29.375 C-12.25 20.135 -12.25 10.895 -12.25 1.375 C-9.94 1.375 -7.63 1.375 -5.25 1.375 C-3.69049449 -0.18450551 -2.16122869 0.09303302 0 0 Z M-5.25 7.375 C-5.66666667 10.375 -5.66666667 10.375 -5.25 13.375 C-4.59 14.035 -3.93 14.695 -3.25 15.375 C0.05683466 15.08516731 0.05683466 15.08516731 2.75 13.375 C2.46269945 11.03555264 2.13063221 8.7010857 1.75 6.375 C-1.73581856 5.1729936 -1.92992344 5.16161563 -5.25 7.375 Z " fill="#2C70E1" transform="translate(41.25,166.625)"/>
<path d="M0 0 C2.31 0 4.62 0 7 0 C7.33 4.62 7.66 9.24 8 14 C9.423125 13.9175 10.84625 13.835 12.3125 13.75 C15.27629556 13.57818576 16.48404074 13.56550799 18.78125 15.5 C20.51009609 19.04635096 20.32015147 22.39970605 20.1875 26.25 C20.16719727 27.36761719 20.16719727 27.36761719 20.14648438 28.5078125 C20.11127204 30.33885416 20.05746851 32.16952169 20 34 C17.69 34 15.38 34 13 34 C12.67 29.71 12.34 25.42 12 21 C11.01 21 10.02 21 9 21 C7.71553081 23.56893838 7.67022856 25.76576337 7.4375 28.625 C7.31181641 30.12933594 7.31181641 30.12933594 7.18359375 31.6640625 C7.12300781 32.43492187 7.06242187 33.20578125 7 34 C4.69 34 2.38 34 0 34 C0 22.78 0 11.56 0 0 Z " fill="#336ED6" transform="translate(55,153)"/>
<path d="M0 0 C2.60203255 1.76340837 3.37298073 3.17983327 5 6 C5 7.32 5 8.64 5 10 C1.7 11.32 -1.6 12.64 -5 14 C-3.35 14.33 -1.7 14.66 0 15 C1.3125 17.0625 1.3125 17.0625 2 19 C-1.65612044 21.33991708 -4.73207376 21.37437949 -9 21 C-11.82275936 19.74544028 -13.46288541 18.71615278 -15.3125 16.25 C-16.31516165 12.96856187 -16.35356638 10.41780831 -16 7 C-12.01990224 -0.16417597 -7.95471166 -1.33619175 0 0 Z M-6 5 C-6.99 5.99 -7.98 6.98 -9 8 C-8.67 8.66 -8.34 9.32 -8 10 C-6.35 9.34 -4.7 8.68 -3 8 C-3 7.34 -3 6.68 -3 6 C-3.99 5.67 -4.98 5.34 -6 5 Z " fill="#336DCE" transform="translate(94,167)"/>
<path d="M0 0 C2.60203255 1.76340837 3.37298073 3.17983327 5 6 C5 7.32 5 8.64 5 10 C1.7 11.32 -1.6 12.64 -5 14 C-3.35 14.33 -1.7 14.66 0 15 C1.3125 17.0625 1.3125 17.0625 2 19 C-1.65612044 21.33991708 -4.73207376 21.37437949 -9 21 C-11.82275936 19.74544028 -13.46288541 18.71615278 -15.3125 16.25 C-16.31516165 12.96856187 -16.35356638 10.41780831 -16 7 C-12.01990224 -0.16417597 -7.95471166 -1.33619175 0 0 Z M-6 5 C-6.99 5.99 -7.98 6.98 -9 8 C-8.67 8.66 -8.34 9.32 -8 10 C-6.35 9.34 -4.7 8.68 -3 8 C-3 7.34 -3 6.68 -3 6 C-3.99 5.67 -4.98 5.34 -6 5 Z " fill="#336ED5" transform="translate(134,167)"/>
<path d="M0 0 C2.64 0 5.28 0 8 0 C8 10.23 8 20.46 8 31 C5.36 31 2.72 31 0 31 C0 20.77 0 10.54 0 0 Z " fill="#326CCF" transform="translate(143,156)"/>
<path d="M0 0 C1.32 0 2.64 0 4 0 C4.3125 2.8125 4.3125 2.8125 4 6 C3.195625 6.391875 2.39125 6.78375 1.5625 7.1875 C-1.25691713 8.74640165 -1.25691713 8.74640165 -1.5546875 11.625 C-1.79008929 14.42128792 -1.94760725 17.19460659 -2 20 C-4.64 20 -7.28 20 -10 20 C-10 13.73 -10 7.46 -10 1 C-7 1 -4 1 -1 1 C-0.67 0.67 -0.34 0.34 0 0 Z " fill="#336BCA" transform="translate(112,167)"/>
<path d="M0 0 C0.33 0.66 0.66 1.32 1 2 C3.97 2 6.94 2 10 2 C10 2.99 10 3.98 10 5 C10.66 5 11.32 5 12 5 C12 5.99 12 6.98 12 8 C10.68 7.67 9.36 7.34 8 7 C8 6.34 8 5.68 8 5 C5.03 5 2.06 5 -1 5 C-1.14291015 12.06111869 -1.14291015 12.06111869 0 19 C-0.66 19 -1.32 19 -2 19 C-2 21.97 -2 24.94 -2 28 C-3.65 28 -5.3 28 -7 28 C-7 19.09 -7 10.18 -7 1 C-5.02 1 -3.04 1 -1 1 C-0.67 0.67 -0.34 0.34 0 0 Z " fill="#2D6FE0" transform="translate(37,167)"/>
<path d="M0 0 C1.98 0 3.96 0 6 0 C-1.35280138 9.64219635 -11.52751044 16.17583681 -23 20 C-24.40824893 20.08021999 -25.81997231 20.10765977 -27.23046875 20.09765625 C-28.03291016 20.09443359 -28.83535156 20.09121094 -29.66210938 20.08789062 C-30.49548828 20.07951172 -31.32886719 20.07113281 -32.1875 20.0625 C-33.03248047 20.05798828 -33.87746094 20.05347656 -34.74804688 20.04882812 C-36.83206155 20.03705403 -38.91603977 20.0191189 -41 20 C-41 19.67 -41 19.34 -41 19 C-40.39937744 18.9498877 -39.79875488 18.89977539 -39.17993164 18.84814453 C-36.47318501 18.61683453 -33.76793878 18.37111595 -31.0625 18.125 C-30.11697266 18.04636719 -29.17144531 17.96773437 -28.19726562 17.88671875 C-27.29814453 17.80292969 -26.39902344 17.71914062 -25.47265625 17.6328125 C-24.64000244 17.55949707 -23.80734863 17.48618164 -22.94946289 17.41064453 C-21.98447876 17.20737549 -21.98447876 17.20737549 -21 17 C-20.67 16.34 -20.34 15.68 -20 15 C-18.02 15 -16.04 15 -14 15 C-14.103125 14.113125 -14.20625 13.22625 -14.3125 12.3125 C-13.90501428 7.99315142 -12.2277297 6.74357025 -9 4 C-8.505 4.99 -8.505 4.99 -8 6 C-7.443125 5.67 -6.88625 5.34 -6.3125 5 C-3.69715478 3.8690399 -1.8193354 3.84337026 1 4 C0.505 2.02 0.505 2.02 0 0 Z " fill="#2C70E0" transform="translate(95,104)"/>
<path d="M0 0 C0 0.66 0 1.32 0 2 C0.99 2.33 1.98 2.66 3 3 C1.875 5 1.875 5 0 7 C-3.1875 7.25 -3.1875 7.25 -6 7 C-6.33 7.99 -6.66 8.98 -7 10 C-7.78375 9.835 -8.5675 9.67 -9.375 9.5 C-11.88208039 8.9376293 -11.88208039 8.9376293 -14 9 C-14.99 8.67 -15.98 8.34 -17 8 C-17.33 7.01 -17.66 6.02 -18 5 C-11.74031045 0.85647028 -7.51869512 -0.59672183 0 0 Z " fill="#2B6FE4" transform="translate(135,68)"/>
<path d="M0 0 C0.33 0 0.66 0 1 0 C1 8.91 1 17.82 1 27 C2.65 27 4.3 27 6 27 C5.98839844 26.36191406 5.97679687 25.72382813 5.96484375 25.06640625 C5.95582031 24.24011719 5.94679688 23.41382813 5.9375 22.5625 C5.92589844 21.73878906 5.91429687 20.91507813 5.90234375 20.06640625 C6 18 6 18 7 17 C6.855625 16.46375 6.71125 15.9275 6.5625 15.375 C5.81641441 12.22486086 5.93798529 9.22476484 6 6 C6.33 6 6.66 6 7 6 C7.2475 7.11375 7.495 8.2275 7.75 9.375 C8.61005339 13.04615198 8.61005339 13.04615198 11.125 14.4375 C11.74375 14.623125 12.3625 14.80875 13 15 C12.01 15.33 11.02 15.66 10 16 C12.76264289 16.59732819 15.16032769 17 18 17 C18 16.01 18 15.02 18 14 C18.66 14 19.32 14 20 14 C20.33 10.7 20.66 7.4 21 4 C21.33 4 21.66 4 22 4 C23.41336929 9.2680128 22.67695325 12.27071592 20 17 C17.13844371 19.39752014 15.53726332 19.9578617 11.8125 20.25 C9 20 9 20 7 19 C7 21.97 7 24.94 7 28 C4.69 28 2.38 28 0 28 C0 18.76 0 9.52 0 0 Z " fill="#3B68C0" transform="translate(29,168)"/>
<path d="M0 0 C0.33 0 0.66 0 1 0 C0.67 2.64 0.34 5.28 0 8 C0.66 8 1.32 8 2 8 C2 9.98 2 11.96 2 14 C3.65 14.33 5.3 14.66 7 15 C7 14.01 7 13.02 7 12 C8.98 11.67 10.96 11.34 13 11 C13.99 12.65 14.98 14.3 16 16 C12.34387956 18.33991708 9.26792624 18.37437949 5 18 C2.17724064 16.74544028 0.53711459 15.71615278 -1.3125 13.25 C-2.54289585 9.22324993 -2.60306223 5.46996418 -1 1.5625 C-0.67 1.046875 -0.34 0.53125 0 0 Z " fill="#366BCA" transform="translate(80,170)"/>
<path d="M0 0 C0.66 0 1.32 0 2 0 C2 10.56 2 21.12 2 32 C3.32 32 4.64 32 6 32 C6 29.03 6 26.06 6 23 C6.33 23 6.66 23 7 23 C7 26.63 7 30.26 7 34 C4.69 34 2.38 34 0 34 C0 22.78 0 11.56 0 0 Z " fill="#3B6BC1" transform="translate(55,153)"/>
<path d="M0 0 C0.66 0.33 1.32 0.66 2 1 C0.54744301 4.82946843 -1.42895561 6.12050295 -5 8 C-3.68 9.32 -2.36 10.64 -1 12 C-5.75 13.125 -5.75 13.125 -8 12 C-8.33 13.32 -8.66 14.64 -9 16 C-10.65 16.33 -12.3 16.66 -14 17 C-14 17.99 -14 18.98 -14 20 C-15.65 20 -17.3 20 -19 20 C-13.17371096 12.84198775 -6.5617015 6.47408234 0 0 Z " fill="#306EE5" transform="translate(113,73)"/>
<path d="M0 0 C0 1.32 0 2.64 0 4 C-1.65 4.33 -3.3 4.66 -5 5 C-5.66 6.98 -6.32 8.96 -7 11 C-7.99 10.67 -8.98 10.34 -10 10 C-10 9.34 -10 8.68 -10 8 C-10.66 8 -11.32 8 -12 8 C-12 6.02 -12 4.04 -12 2 C-10.66666667 1.66666667 -9.33333333 1.33333333 -8 1 C-7.01 0.7215625 -7.01 0.7215625 -6 0.4375 C-4 0 -4 0 0 0 Z " fill="#2E70E2" transform="translate(115,168)"/>
<path d="M0 0 C0.33 0.66 0.66 1.32 1 2 C-0.27875 2.20625 -1.5575 2.4125 -2.875 2.625 C-12.46412039 4.7961216 -19.12294733 10.33258692 -25 18 C-26.24546405 15.50907189 -25.7767578 14.58919267 -25 12 C-24.01 12 -23.02 12 -22 12 C-22 11.34 -22 10.68 -22 10 C-22.66 9.67 -23.32 9.34 -24 9 C-22.02 8.67 -20.04 8.34 -18 8 C-18 7.34 -18 6.68 -18 6 C-17.01 6 -16.02 6 -15 6 C-15 5.01 -15 4.02 -15 3 C-15.99 2.67 -16.98 2.34 -18 2 C-16.68 1.67 -15.36 1.34 -14 1 C-14 1.66 -14 2.32 -14 3 C-12.80375 2.505 -11.6075 2.01 -10.375 1.5 C-6.78898524 0.14088765 -3.86595201 -0.2899464 0 0 Z " fill="#3971CF" transform="translate(58,41)"/>
<path d="M0 0 C0.33 0.99 0.66 1.98 1 3 C4.96 3 8.92 3 13 3 C13 4.32 13 5.64 13 7 C9.85069107 8.04976964 7.61185544 8.10131595 4.3125 8.0625 C3.31863281 8.05347656 2.32476562 8.04445312 1.30078125 8.03515625 C0.16189453 8.01775391 0.16189453 8.01775391 -1 8 C-1 7.34 -1 6.68 -1 6 C-1.66 5.67 -2.32 5.34 -3 5 C-3 3 -3 3 -1.5 1.375 C-1.005 0.92125 -0.51 0.4675 0 0 Z " fill="#2A6EE6" transform="translate(175,179)"/>
<path d="M0 0 C0.66 0.33 1.32 0.66 2 1 C2.35672241 3.51963422 2.44375117 6.01333243 2.55859375 8.5546875 C3.07140413 11.39556625 3.71524483 12.28916658 6 14 C8.60611077 14.72197162 8.60611077 14.72197162 11 15 C11 16.98 11 18.96 11 21 C9.35 21 7.7 21 6 21 C6.99 20.67 7.98 20.34 9 20 C9 18.68 9 17.36 9 16 C7.95199219 16.12568359 7.95199219 16.12568359 6.8828125 16.25390625 C5.97273437 16.35574219 5.06265625 16.45757812 4.125 16.5625 C3.22007812 16.66691406 2.31515625 16.77132812 1.3828125 16.87890625 C-1 17 -1 17 -3 16 C-2.38722388 13.03824877 -1.74627478 11.61941217 0 9 C0.24107326 6.71351152 0.24107326 6.71351152 0.125 4.3125 C0.10695312 3.50425781 0.08890625 2.69601563 0.0703125 1.86328125 C0.04710937 1.24839844 0.02390625 0.63351563 0 0 Z " fill="#3770CE" transform="translate(179,166)"/>
<path d="M0 0 C0.99 0.33 1.98 0.66 3 1 C3 1.66 3 2.32 3 3 C2.34 3 1.68 3 1 3 C0.67 3.99 0.34 4.98 0 6 C-0.61359375 6.13277344 -1.2271875 6.26554687 -1.859375 6.40234375 C-4.91751477 7.25616744 -5.60722157 8.91165298 -7.25 11.5625 C-7.77078125 12.38878906 -8.2915625 13.21507813 -8.828125 14.06640625 C-9.21484375 14.70449219 -9.6015625 15.34257813 -10 16 C-10.60328125 15.82597656 -11.2065625 15.65195313 -11.828125 15.47265625 C-14.4819339 14.8951187 -16.38967219 15.34741805 -19 16 C-18.43023437 15.57332031 -17.86046875 15.14664063 -17.2734375 14.70703125 C-11.14313937 10.10404108 -5.29381168 5.5652892 0 0 Z " fill="#376ED4" transform="translate(93,93)"/>
<path d="M0 0 C0.66 0 1.32 0 2 0 C2 0.66 2 1.32 2 2 C2.66 2.33 3.32 2.66 4 3 C-1.66666667 8.66666667 -7.33333333 14.33333333 -13 20 C-13.33 18.68 -13.66 17.36 -14 16 C-13.0409375 15.5978125 -13.0409375 15.5978125 -12.0625 15.1875 C-9.66868314 14.11332248 -9.66868314 14.11332248 -9 11 C-8.01 11 -7.02 11 -6 11 C-6 9.35 -6 7.7 -6 6 C-5.01 5.67 -4.02 5.34 -3 5 C-2.67 4.34 -2.34 3.68 -2 3 C-1.67 3.33 -1.34 3.66 -1 4 C-0.67 2.68 -0.34 1.36 0 0 Z " fill="#366FD1" transform="translate(115,83)"/>
<path d="M0 0 C2.5 2.25 2.5 2.25 5 5 C5 6.32 5 7.64 5 9 C-1.625 12.125 -1.625 12.125 -5 11 C-4.67 10.34 -4.34 9.68 -4 9 C-5.32 8.67 -6.64 8.34 -8 8 C-6.35 7.67 -4.7 7.34 -3 7 C-3 6.34 -3 5.68 -3 5 C-4.65 5 -6.3 5 -8 5 C-7.67 4.34 -7.34 3.68 -7 3 C-4.03 3.495 -4.03 3.495 -1 4 C-1 5.65 -1 7.3 -1 9 C-0.01 9 0.98 9 2 9 C2.33 7.35 2.66 5.7 3 4 C2.34 4 1.68 4 1 4 C0.67 2.68 0.34 1.36 0 0 Z " fill="#346EC7" transform="translate(134,168)"/>
<path d="M0 0 C0.66 0.33 1.32 0.66 2 1 C2 1.66 2 2.32 2 3 C2.66 3 3.32 3 4 3 C4 3.99 4 4.98 4 6 C0.04 6 -3.92 6 -8 6 C-8.33 4.68 -8.66 3.36 -9 2 C-5.54337669 -0.30441554 -4.05142119 -0.25860135 0 0 Z " fill="#2E6FE4" transform="translate(174,156)"/>
<path d="M0 0 C0.99 0.33 1.98 0.66 3 1 C3 1.66 3 2.32 3 3 C3.99 2.67 4.98 2.34 6 2 C6.33 1.34 6.66 0.68 7 0 C8.98 0 10.96 0 13 0 C10.03786426 2.30465234 6.97847243 4.27590448 3.75 6.1875 C2.85796875 6.71730469 1.9659375 7.24710937 1.046875 7.79296875 C0.37140625 8.19128906 -0.3040625 8.58960937 -1 9 C-1 8.34 -1 7.68 -1 7 C-1.99 6.67 -2.98 6.34 -4 6 C-3.6875 4.125 -3.6875 4.125 -3 2 C-2.01 1.34 -1.02 0.68 0 0 Z " fill="#316FDF" transform="translate(122,75)"/>
<path d="M0 0 C0.66 0.33 1.32 0.66 2 1 C3.09506492 4.28519475 3.09960608 6.73663415 3.0625 10.1875 C3.05347656 11.27417969 3.04445313 12.36085937 3.03515625 13.48046875 C3.02355469 14.31191406 3.01195313 15.14335937 3 16 C1.68 16 0.36 16 -1 16 C-1.02692484 13.70839681 -1.04636124 11.41670454 -1.0625 9.125 C-1.07410156 7.84882813 -1.08570312 6.57265625 -1.09765625 5.2578125 C-1 2 -1 2 0 0 Z " fill="#2C70E2" transform="translate(70,170)"/>
<path d="M0 0 C1.65 0 3.3 0 5 0 C5 4.62 5 9.24 5 14 C4.34 13.34 3.68 12.68 3 12 C2.34 12.66 1.68 13.32 1 14 C-0.38226016 11.23547967 -0.09525387 8.9538637 -0.0625 5.875 C-0.05347656 4.77929688 -0.04445312 3.68359375 -0.03515625 2.5546875 C-0.02355469 1.71164063 -0.01195312 0.86859375 0 0 Z " fill="#306CD7" transform="translate(57,153)"/>
<path d="M0 0 C1.98 0.66 3.96 1.32 6 2 C6 2.66 6 3.32 6 4 C4.68 4.33 3.36 4.66 2 5 C2 4.34 2 3.68 2 3 C1.34 3 0.68 3 0 3 C0 3.99 0 4.98 0 6 C5.75813575 6.10469338 11.29014022 5.74016701 17 5 C15.17233014 7.38227313 14.2834498 7.95881499 11.2578125 8.3984375 C10.22398438 8.39070312 9.19015625 8.38296875 8.125 8.375 C7.09632812 8.38273438 6.06765625 8.39046875 5.0078125 8.3984375 C1.66427824 7.95552777 -0.25651444 6.9133534 -3 5 C-2.01 3.35 -1.02 1.7 0 0 Z " fill="#456EB8" transform="translate(6,179)"/>
<path d="M0 0 C2.97 0.495 2.97 0.495 6 1 C5.79375 1.78375 5.5875 2.5675 5.375 3.375 C5.25125 4.24125 5.1275 5.1075 5 6 C5.66 6.66 6.32 7.32 7 8 C6.67 8.66 6.34 9.32 6 10 C4.02 10 2.04 10 0 10 C-0.66 8.35 -1.32 6.7 -2 5 C-0.68 4.34 0.64 3.68 2 3 C2 2.34 2 1.68 2 1 C1.34 0.67 0.68 0.34 0 0 Z " fill="#2B70E6" transform="translate(80,37)"/>
<path d="M0 0 C1.6875 2.0625 1.6875 2.0625 1.6875 4.0625 C1.16542969 3.86914062 0.64335938 3.67578125 0.10546875 3.4765625 C-5.95176991 1.3337215 -11.97358225 0.06961777 -18.3125 -0.9375 C-18.3125 -1.2675 -18.3125 -1.5975 -18.3125 -1.9375 C-16.58435839 -2.13422365 -14.85490803 -2.31946799 -13.125 -2.5 C-12.16207031 -2.60441406 -11.19914062 -2.70882812 -10.20703125 -2.81640625 C-5.97261825 -2.99355443 -3.28578438 -2.75295448 0 0 Z " fill="#3F74CF" transform="translate(78.3125,42.9375)"/>
<path d="M0 0 C0.91007812 0.00902344 1.82015625 0.01804688 2.7578125 0.02734375 C3.45648438 0.03894531 4.15515625 0.05054688 4.875 0.0625 C1.99586007 2.94163993 -1.30842198 3.79030733 -5.125 5.0625 C-5.85823796 7.07758358 -5.85823796 7.07758358 -6.125 9.0625 C-6.785 9.0625 -7.445 9.0625 -8.125 9.0625 C-7.5390625 2.91015625 -7.5390625 2.91015625 -7.125 1.0625 C-4.60024538 -0.19987731 -2.81299534 -0.03606404 0 0 Z " fill="#2E6FE4" transform="translate(88.125,168.9375)"/>
<path d="M0 0 C0.66 0.33 1.32 0.66 2 1 C0.3970947 1.81498562 -1.20737278 2.62689927 -2.8125 3.4375 C-3.70582031 3.88996094 -4.59914063 4.34242187 -5.51953125 4.80859375 C-8.90970179 6.43694338 -11.51003761 7.12404229 -15.23046875 7.09765625 C-16.03291016 7.09443359 -16.83535156 7.09121094 -17.66210938 7.08789062 C-18.49548828 7.07951172 -19.32886719 7.07113281 -20.1875 7.0625 C-21.03248047 7.05798828 -21.87746094 7.05347656 -22.74804688 7.04882812 C-24.83206155 7.03705403 -26.91603977 7.0191189 -29 7 C-29 6.67 -29 6.34 -29 6 C-28.09906616 5.92483154 -28.09906616 5.92483154 -27.17993164 5.84814453 C-24.47318501 5.61683453 -21.76793878 5.37111595 -19.0625 5.125 C-18.11697266 5.04636719 -17.17144531 4.96773438 -16.19726562 4.88671875 C-15.29814453 4.80292969 -14.39902344 4.71914062 -13.47265625 4.6328125 C-12.22367554 4.52283936 -12.22367554 4.52283936 -10.94946289 4.41064453 C-10.30614014 4.27513184 -9.66281738 4.13961914 -9 4 C-8.67 3.34 -8.34 2.68 -8 2 C-6.0085944 1.61866701 -4.00720923 1.28674418 -2 1 C-1.34 0.67 -0.68 0.34 0 0 Z " fill="#3F6FC1" transform="translate(83,117)"/>
<path d="M0 0 C1.32 0.66 2.64 1.32 4 2 C4 2.66 4 3.32 4 4 C5.0725 4.103125 6.145 4.20625 7.25 4.3125 C11.00902802 5.00165514 12.13884539 5.71107631 15 8 C17.64934822 8.71433121 17.64934822 8.71433121 20 9 C20 9.33 20 9.66 20 10 C12.0351832 9.73885847 6.74953884 7.12541907 0 3 C0 2.01 0 1.02 0 0 Z " fill="#3B6EC6" transform="translate(34,113)"/>
<path d="M0 0 C1.98 0 3.96 0 6 0 C3.24160796 3.68000434 0.37924618 6.49505889 -3.25 9.3125 C-4.14203125 10.00988281 -5.0340625 10.70726563 -5.953125 11.42578125 C-6.62859375 11.94527344 -7.3040625 12.46476562 -8 13 C-8.66 12.67 -9.32 12.34 -10 12 C-7.8706107 8.80591604 -6.23187259 7.90597614 -3 6 C-2.67 5.34 -2.34 4.68 -2 4 C-1.01 4 -0.02 4 1 4 C0.67 2.68 0.34 1.36 0 0 Z " fill="#3E6DC3" transform="translate(95,104)"/>
<path d="M0 0 C-1.65091778 4.29238623 -4.73754566 6.8793915 -8 10 C-10.475 9.01 -10.475 9.01 -13 8 C-13 7.67 -13 7.34 -13 7 C-11.02 7 -9.04 7 -7 7 C-6.731875 6.030625 -6.46375 5.06125 -6.1875 4.0625 C-5.795625 3.051875 -5.40375 2.04125 -5 1 C-2 0 -2 0 0 0 Z " fill="#416FBC" transform="translate(93,40)"/>
<path d="M0 0 C1.53445094 3.06890187 0.54984289 5.70094266 0 9 C-1.65 9.33 -3.3 9.66 -5 10 C-5.3125 7.8125 -5.3125 7.8125 -5 5 C-2.5 2.1875 -2.5 2.1875 0 0 Z " fill="#2771EA" transform="translate(163,159)"/>
<path d="M0 0 C0.33 0 0.66 0 1 0 C1.10957031 1.08539063 1.21914063 2.17078125 1.33203125 3.2890625 C1.49158608 4.73444152 1.65177611 6.17975051 1.8125 7.625 C1.88275391 8.33785156 1.95300781 9.05070312 2.02539062 9.78515625 C2.55963796 14.443793 3.71666155 17.83368929 6 22 C6 22.66 6 23.32 6 24 C5.34 24 4.68 24 4 24 C-0.06523276 18.47128345 -0.1305233 12.79128365 -0.0625 6.125 C-0.05347656 4.97257812 -0.04445313 3.82015625 -0.03515625 2.6328125 C-0.02355469 1.76398438 -0.01195313 0.89515625 0 0 Z " fill="#3D6BBF" transform="translate(27,72)"/>
<path d="M0 0 C1.98 0 3.96 0 6 0 C6.33 0.99 6.66 1.98 7 3 C7.66 3 8.32 3 9 3 C8.67 4.65 8.34 6.3 8 8 C7.01 8 6.02 8 5 8 C4.731875 7.236875 4.46375 6.47375 4.1875 5.6875 C3.05575888 3.12619116 2.08776599 1.80307062 0 0 Z " fill="#2C71E4" transform="translate(128,169)"/>
<path d="M0 0 C1.93719378 -0.05406122 3.87481921 -0.09282025 5.8125 -0.125 C6.89144531 -0.14820313 7.97039063 -0.17140625 9.08203125 -0.1953125 C12 0 12 0 15 2 C14.625 4.4375 14.625 4.4375 14 7 C13.01 7.495 13.01 7.495 12 8 C11.34 7.34 10.68 6.68 10 6 C10.99 6 11.98 6 13 6 C13 5.01 13 4.02 13 3 C8.71 2.34 4.42 1.68 0 1 C0 0.67 0 0.34 0 0 Z " fill="#3D6BC2" transform="translate(10,156)"/>
<path d="M0 0 C2.475 0.99 2.475 0.99 5 2 C5 3.65 5 5.3 5 7 C3.68 7 2.36 7 1 7 C0.67 4.69 0.34 2.38 0 0 Z " fill="#2871E3" transform="translate(157,172)"/>
<path d="M0 0 C0.33 0 0.66 0 1 0 C2.41703948 5.28169261 1.49499401 8.19482636 -1 13 C-1.66 13.66 -2.32 14.32 -3 15 C-3.99 15 -4.98 15 -6 15 C-6 14.34 -6 13.68 -6 13 C-5.01 13 -4.02 13 -3 13 C-3 12.01 -3 11.02 -3 10 C-2.34 10 -1.68 10 -1 10 C-0.67 6.7 -0.34 3.4 0 0 Z " fill="#3F6CC0" transform="translate(50,172)"/>
<path d="M0 0 C2.97 0.33 5.94 0.66 9 1 C9 3.97 9 6.94 9 10 C8.01 10 7.02 10 6 10 C6.33 9.67 6.66 9.34 7 9 C7.04092937 6.66702567 7.04241723 4.33294775 7 2 C4.69 2.33 2.38 2.66 0 3 C0 2.01 0 1.02 0 0 Z " fill="#3D6DC1" transform="translate(36,171)"/>
<path d="M0 0 C-1.485 5.445 -1.485 5.445 -3 11 C-3.33 11 -3.66 11 -4 11 C-4.33 7.7 -4.66 4.4 -5 1 C-3 0 -3 0 0 0 Z " fill="#3570CE" transform="translate(31,61)"/>
<path d="M0 0 C1.32 0.66 2.64 1.32 4 2 C3.67 2.66 3.34 3.32 3 4 C1.68 4 0.36 4 -1 4 C-0.67 2.68 -0.34 1.36 0 0 Z M-3 4 C-2.34 4 -1.68 4 -1 4 C-1 4.66 -1 5.32 -1 6 C-0.34 6 0.32 6 1 6 C1 6.66 1 7.32 1 8 C1.66 8.33 2.32 8.66 3 9 C2.01 9.33 1.02 9.66 0 10 C0 9.34 0 8.68 0 8 C-0.66 8 -1.32 8 -2 8 C-2.33 6.68 -2.66 5.36 -3 4 Z " fill="#2B70EB" transform="translate(44,34)"/>
<path d="M0 0 C7.33333333 -0.36666667 7.33333333 -0.36666667 10.5 1.375 C12 3 12 3 12 5 C11.01 5 10.02 5 9 5 C8.34 4.34 7.68 3.68 7 3 C4.67724823 2.59952556 2.34260643 2.2602896 0 2 C0 1.34 0 0.68 0 0 Z " fill="#386BC7" transform="translate(38,167)"/>
<path d="M0 0 C0.66 0.33 1.32 0.66 2 1 C0.52267049 4.8947778 -1.45879633 5.97645504 -5 8 C-6.36984198 9.29579647 -7.7151049 10.61992749 -9 12 C-9.66 11.67 -10.32 11.34 -11 11 C-7.37 7.37 -3.74 3.74 0 0 Z " fill="#3E6DBF" transform="translate(113,73)"/>
<path d="M0 0 C0.66 0.33 1.32 0.66 2 1 C1.401875 1.53625 0.80375 2.0725 0.1875 2.625 C-2.16395446 4.95196562 -2.16395446 4.95196562 -3.5625 8.1875 C-5 11 -5 11 -8 12 C-6.49087042 7.01987239 -3.44338151 3.75740058 0 0 Z " fill="#3C6CC2" transform="translate(30,41)"/>
<path d="M0 0 C1.98 0.66 3.96 1.32 6 2 C6 2.66 6 3.32 6 4 C4.68 4.33 3.36 4.66 2 5 C2 4.34 2 3.68 2 3 C1.34 3 0.68 3 0 3 C0 3.99 0 4.98 0 6 C-0.99 5.67 -1.98 5.34 -3 5 C-2.01 3.35 -1.02 1.7 0 0 Z " fill="#396BC7" transform="translate(6,179)"/>
<path d="M0 0 C0 0.99 0 1.98 0 3 C-6.0546875 3.1953125 -6.0546875 3.1953125 -8 3 C-8.66 2.34 -9.32 1.68 -10 1 C-6.61981469 -0.04005702 -3.5219721 -0.08004482 0 0 Z " fill="#346DCE" transform="translate(174,184)"/>
<path d="M0 0 C1.32 0 2.64 0 4 0 C4 0.66 4 1.32 4 2 C4.99 2 5.98 2 7 2 C6.67 3.98 6.34 5.96 6 8 C4.02 8.33 2.04 8.66 0 9 C1.32 8.01 2.64 7.02 4 6 C2.84826645 3.53199953 1.95216435 1.95216435 0 0 Z " fill="#396DC7" transform="translate(13,174)"/>
<path d="M0 0 C0.66 2.31 1.32 4.62 2 7 C1.34 7 0.68 7 0 7 C0 6.34 0 5.68 0 5 C-1.32 5 -2.64 5 -4 5 C-4 3.68 -4 2.36 -4 1 C-2 0 -2 0 0 0 Z " fill="#2772E2" transform="translate(17,169)"/>
<path d="M0 0 C0.33 0.66 0.66 1.32 1 2 C0.67 2.99 0.34 3.98 0 5 C-0.66 5 -1.32 5 -2 5 C-2 5.99 -2 6.98 -2 8 C-3.65 8 -5.3 8 -7 8 C-6.02133662 6.85373678 -5.04205413 5.70800212 -4.0625 4.5625 C-3.51722656 3.92441406 -2.97195312 3.28632812 -2.41015625 2.62890625 C-1.63204305 1.73008851 -0.84063472 0.84063472 0 0 Z " fill="#396CC8" transform="translate(101,85)"/>
<path d="M0 0 C0.99 0 1.98 0 3 0 C5 2 5 2 5 5 C3.35 5 1.7 5 0 5 C-0.5625 3.0625 -0.5625 3.0625 -1 1 C-0.67 0.67 -0.34 0.34 0 0 Z " fill="#2970E8" transform="translate(82,180)"/>
<path d="M0 0 C2.5 2.25 2.5 2.25 5 5 C5 6.32 5 7.64 5 9 C3.35 9.33 1.7 9.66 0 10 C0.66 9.67 1.32 9.34 2 9 C2.65555119 6.47266765 2.65555119 6.47266765 3 4 C2.34 4 1.68 4 1 4 C0.67 2.68 0.34 1.36 0 0 Z " fill="#3F6BC1" transform="translate(134,168)"/>
<path d="M0 0 C0.99 0 1.98 0 3 0 C1.44499019 3.81684226 -1.03595495 6.19195732 -4 9 C-4.33 7.68 -4.66 6.36 -5 5 C-4.360625 4.731875 -3.72125 4.46375 -3.0625 4.1875 C-0.66868314 3.11332248 -0.66868314 3.11332248 0 0 Z " fill="#3D6FC3" transform="translate(106,94)"/>
<path d="M0 0 C1.98 0 3.96 0 6 0 C-1.71428571 6 -1.71428571 6 -5 6 C-4.67 5.01 -4.34 4.02 -4 3 C-3.01 2.67 -2.02 2.34 -1 2 C-0.67 1.34 -0.34 0.68 0 0 Z " fill="#3E72C2" transform="translate(129,75)"/>
<path d="M0 0 C2.97 0 5.94 0 9 0 C9.33 0.66 9.66 1.32 10 2 C6.01803543 3.05404945 3.01804691 2.84098656 -1 2 C-0.67 1.34 -0.34 0.68 0 0 Z " fill="#3B6DC9" transform="translate(63,167)"/>
<path d="M0 0 C0.33 0.66 0.66 1.32 1 2 C-2.32307692 6.8 -2.32307692 6.8 -5.75 7.8125 C-6.4925 7.874375 -7.235 7.93625 -8 8 C-5.33333333 5.33333333 -2.66666667 2.66666667 0 0 Z " fill="#3A6EC4" transform="translate(88,98)"/>
<path d="M0 0 C0.33 0.66 0.66 1.32 1 2 C-2.63 2.66 -6.26 3.32 -10 4 C-10 3.34 -10 2.68 -10 2 C-6.5980513 -0.09350689 -3.94727588 -0.17942163 0 0 Z " fill="#4277C5" transform="translate(58,41)"/>
<path d="M0 0 C1.65 0 3.3 0 5 0 C5 1.32 5 2.64 5 4 C3.02 4.33 1.04 4.66 -1 5 C-0.34 4.67 0.32 4.34 1 4 C0.67 2.68 0.34 1.36 0 0 Z " fill="#2F6CDD" transform="translate(183,182)"/>
<path d="M0 0 C-2.71182212 2.60334924 -3.89133813 2.99456691 -7.75 3.1875 C-8.8225 3.125625 -9.895 3.06375 -11 3 C-7.72430636 -0.27569364 -4.48909309 -0.12469703 0 0 Z " fill="#406ECB" transform="translate(56,30)"/>
<path d="M0 0 C1.8125 1.3125 1.8125 1.3125 2.8125 4.3125 C1.8225 4.6425 0.8325 4.9725 -0.1875 5.3125 C-0.1875 3.9925 -0.1875 2.6725 -0.1875 1.3125 C-2.1675 1.3125 -4.1475 1.3125 -6.1875 1.3125 C-2.78451493 -0.87513326 -2.78451493 -0.87513326 0 0 Z " fill="#3E69B8" transform="translate(133.1875,181.6875)"/>
<path d="M0 0 C1.53445094 3.06890187 0.54984289 5.70094266 0 9 C-0.103125 8.360625 -0.20625 7.72125 -0.3125 7.0625 C-0.539375 6.381875 -0.76625 5.70125 -1 5 C-1.99 4.67 -2.98 4.34 -4 4 C-2.68 2.68 -1.36 1.36 0 0 Z " fill="#2F71DD" transform="translate(163,159)"/>
<path d="M0 0 C2.4375 0.8125 2.4375 0.8125 5 2 C5.33 2.99 5.66 3.98 6 5 C4.35 4.67 2.7 4.34 1 4 C0.67 2.68 0.34 1.36 0 0 Z " fill="#2D6FEC" transform="translate(28,105)"/>
<path d="M0 0 C-1.75 3.875 -1.75 3.875 -4 5 C-4.66 4.67 -5.32 4.34 -6 4 C-5.67 3.01 -5.34 2.02 -5 1 C-2 0 -2 0 0 0 Z " fill="#396CC5" transform="translate(93,40)"/>
</svg>
